<svg width="208" height="41" fill="none" xmlns="http://www.w3.org/2000/svg">
  <g clip-path="url(#clip0)">
    <path fill-rule="evenodd" clip-rule="evenodd" d="M13.935 36.123a.87.87 0 01-.685-.344 2.435 2.435 0 01-.45-1.029 13.956 13.956 0 01-.25-1.44 17.41 17.41 0 01-.106-1.877 112.83 112.83 0 01.014-4.134c.018-.846.026-1.506.026-1.982V9.565c0-.776.005-1.366.014-1.771.009-.405.04-.863.091-1.374.03-.38.096-.756.199-1.123.1-.283.233-.553.395-.806.15-.265.368-.484.633-.634.308-.154.625-.29.949-.41a6.32 6.32 0 011.291-.33 38.03 38.03 0 011.728-.212V1.45l-.45-.45H1.412l-.422.45v1.242c2.672.159 4.166.917 4.482 2.273.184 1.145.272 2.303.264 3.462v24.127a24.228 24.228 0 01-.159 3.753c-.073.194-.18.372-.316.528a9.883 9.883 0 01-.645.7 8.543 8.543 0 00-.514.542v.925c13.587 0 21.997.088 25.23.265l1.135-3.832-.712-.503c-5.25.661-10.53 1.058-15.819 1.19h-.001zm25.256-11.046a.728.728 0 01-.158.026c-.263 0-.395-.096-.395-.29.001-.876.067-1.751.198-2.617.148-.944.395-1.87.738-2.761a10.49 10.49 0 011.347-2.537 6.33 6.33 0 015.128-2.524 4.138 4.138 0 013.664 1.824 7.255 7.255 0 011.24 4.175 1.339 1.339 0 01-.884 1.242 43.06 43.06 0 01-4.416 1.507 297.135 297.135 0 00-6.3 1.93.738.738 0 00-.162.025zm15.66 8.245c-3.165 1.92-5.898 2.88-8.198 2.88a7.496 7.496 0 01-4.377-1.295 7.837 7.837 0 01-2.755-3.237 9.994 9.994 0 01-.883-4.188c11.495-3.576 17.295-5.365 17.4-5.365a1.948 1.948 0 001.555-2.008 7.538 7.538 0 00-.883-3.726 6.445 6.445 0 00-2.386-2.471 11.554 11.554 0 00-3.256-1.295 16.625 16.625 0 00-3.785-.41 15.961 15.961 0 00-6.642 1.335 12.734 12.734 0 00-4.758 3.568 16.224 16.224 0 00-2.755 5.021 17.956 17.956 0 00-.95 5.827c0 4.07 1.1 7.118 3.296 9.144 1.986 1.85 4.79 2.774 8.41 2.774a13.572 13.572 0 005.972-1.453 46.094 46.094 0 006.393-3.86l-.577-1.028-.82-.213zM90.36 5.457a7.717 7.717 0 00-3.876-4.202 16.364 16.364 0 00-6.986-1.268 20.517 20.517 0 00-5.18.634 15.764 15.764 0 00-4.456 1.903 9.155 9.155 0 00-3.203 3.45 10.305 10.305 0 00-1.187 5.007 7.676 7.676 0 00.883 3.58 10.003 10.003 0 002.215 2.895 26.913 26.913 0 003.11 2.365 36.247 36.247 0 003.402 2.008 59.003 59.003 0 013.243 1.798c.88.498 1.706 1.087 2.465 1.757 1.95 1.815 2.926 3.541 2.926 5.18a6.371 6.371 0 01-2.03 4.637 6.671 6.671 0 01-4.877 2.022 6.96 6.96 0 01-5.576-2.537 8.705 8.705 0 01-2.148-5.789l-1.027-.37-5.246 5.893a12.282 12.282 0 004.72 4.057 13.846 13.846 0 006.195 1.415 19.604 19.604 0 005.774-.9 21.31 21.31 0 005.326-2.445 12.873 12.873 0 003.914-3.91 9.172 9.172 0 001.516-5.035 7.808 7.808 0 00-.5-2.814 9 9 0 00-1.292-2.326 11.542 11.542 0 00-2.202-2.074 28.173 28.173 0 00-2.808-1.865 96.331 96.331 0 00-3.532-1.916 45.539 45.539 0 01-2.452-1.282 29.33 29.33 0 01-2.218-1.434 11.113 11.113 0 01-2.002-1.76 8.148 8.148 0 01-1.266-2.062 6.28 6.28 0 01-.527-2.55 5.366 5.366 0 011.54-3.885 5.432 5.432 0 014.073-1.585 6.318 6.318 0 014.97 2.087 9.243 9.243 0 012.254 5.048l.923.29 5.142-4.017zm25.638 10.135a5.337 5.337 0 00-1.977-1.982 9.524 9.524 0 00-2.61-1.017 13.378 13.378 0 00-2.992-.317c-1.919-.027-3.827.3-5.629.965a12.23 12.23 0 00-4.165 2.55 13.833 13.833 0 00-2.742 3.738 17.762 17.762 0 00-1.569 4.427 23.091 23.091 0 00-.474 4.73c-.006 1.35.185 2.694.566 3.988.37 1.253.945 2.436 1.7 3.502a7.846 7.846 0 003.099 2.537c1.418.648 2.963.969 4.521.938 4.939 0 9.579-2.176 13.92-6.527l-.527-.767-.659-.158c-3.216 2.484-6.187 3.726-8.911 3.726a6.303 6.303 0 01-2.939-.674 5.928 5.928 0 01-2.099-1.743 10.591 10.591 0 01-1.332-2.458 13.182 13.182 0 01-.751-2.708c-.14-.874-.21-1.758-.211-2.643.006-1.125.103-2.247.29-3.356.207-1.235.516-2.45.923-3.634a7.588 7.588 0 011.872-3.066 4.04 4.04 0 012.9-1.202 3.878 3.878 0 013.585 1.956 9.273 9.273 0 011.16 4.81l.923.37 4.983-2.959a6.7 6.7 0 00-.855-3.026zm9.663 7.862c.134-1.038.368-2.06.699-3.052.303-.965.733-1.884 1.278-2.735a6.112 6.112 0 012.044-1.916 5.627 5.627 0 012.913-.753 5.82 5.82 0 013.15.832 5.497 5.497 0 012.043 2.273c.477.967.822 1.993 1.027 3.052.217 1.14.324 2.3.317 3.462 0 1.057-.009 1.938-.027 2.642a32.3 32.3 0 01-.184 2.538c-.078.83-.223 1.651-.435 2.457-.207.71-.476 1.4-.804 2.062a5.171 5.171 0 01-1.279 1.717 6.331 6.331 0 01-1.872 1.057 7.254 7.254 0 01-2.57.423 4.677 4.677 0 01-2.703-.82 6.055 6.055 0 01-1.884-2.021 12.476 12.476 0 01-1.134-2.761 18.314 18.314 0 01-.607-2.895 21.956 21.956 0 01-.158-2.55 24.262 24.262 0 01.186-3.012zm-3.269 13.663c1.915 1.744 4.956 2.616 9.122 2.616 1.54.01 3.076-.167 4.574-.529a13.497 13.497 0 003.978-1.704 11.775 11.775 0 003.177-2.947 13.748 13.748 0 002.083-4.387 20.91 20.91 0 00.765-5.866 11.006 11.006 0 00-3.612-8.51c-2.198-1.972-5.388-2.959-9.57-2.959-4.183 0-7.628 1.295-10.335 3.885a12.983 12.983 0 00-4.06 9.804c0 4.722 1.291 8.254 3.875 10.597h.003zm41.258-20.93c1.406 0 2.408.282 3.006.846.557.68.909 1.506 1.014 2.38.221 1.03.358 2.078.409 3.131.035.925.053 2.119.053 3.581a467.85 467.85 0 01-.039 5.695c-.009.572-.005 1.246.012 2.022.005.578.04 1.156.106 1.73.053.38.123.794.211 1.242.061.376.186.737.369 1.07.158.265.352.506.578.715a4.082 4.082 0 002.899 1.056c1.319 0 2.83-.67 4.535-2.008a49.663 49.663 0 004.06-3.78l-.606-.9h-.633a6.427 6.427 0 01-3.611 1.401 2.064 2.064 0 01-1.53-.555 2.044 2.044 0 01-.462-.514 3.793 3.793 0 01-.276-1.084 15.326 15.326 0 01-.132-2.286c0-.581.031-1.52.092-2.814a70.18 70.18 0 00.093-2.762v-1.586c.017-1.709.013-2.893-.013-3.555a25.146 25.146 0 00-.304-2.695 4.907 4.907 0 00-.817-2.352 5.49 5.49 0 00-1.635-1.215 5.733 5.733 0 00-2.689-.569c-3.093 0-6.679 1.269-10.756 3.806l-.633-.238a5.014 5.014 0 00-.909-2.708c-.519-.68-1.411-1.018-2.676-1.018a7.2 7.2 0 00-2.228.383c-.835.28-1.632.662-2.374 1.136-.8.503-1.494.97-2.083 1.401-.589.431-1.27.955-2.043 1.572l.975 1.295a35 35 0 01.541-.343c.307-.194.575-.352.804-.476.228-.123.501-.268.817-.436.283-.154.579-.283.884-.386.233-.08.477-.125.724-.132.305-.007.606.07.87.225.268.177.47.437.578.74.132.32.246.645.342.977.108.447.17.903.185 1.362.036.6.057 1.084.064 1.453.008.369.012.924.013 1.665v.45c0 1.726-.132 7.011-.395 15.855l.659.37 5.932-1.718c-.176-.757-.308-3.144-.396-7.16a519.826 519.826 0 01-.128-11.787c3.058-1.656 5.237-2.484 6.538-2.484l.005.002zm25.573 9.01a.702.702 0 01-.158.028c-.263 0-.395-.097-.396-.29.001-.877.067-1.751.199-2.617.148-.944.395-1.87.737-2.762.331-.903.783-1.757 1.345-2.537a6.326 6.326 0 015.128-2.524 4.137 4.137 0 013.664 1.824 7.247 7.247 0 011.239 4.175 1.342 1.342 0 01-.883 1.242 43.205 43.205 0 01-4.415 1.507 295.673 295.673 0 00-6.301 1.93.78.78 0 00-.158.025h-.001zm15.66 8.246c-3.165 1.921-5.898 2.881-8.199 2.88a7.504 7.504 0 01-4.377-1.294 7.84 7.84 0 01-2.754-3.237 9.996 9.996 0 01-.884-4.19c11.495-3.575 17.295-5.363 17.401-5.363a1.95 1.95 0 001.555-2.009 7.54 7.54 0 00-.883-3.726 6.445 6.445 0 00-2.386-2.471 11.57 11.57 0 00-3.256-1.295 16.623 16.623 0 00-3.786-.41 15.958 15.958 0 00-6.64 1.335 12.732 12.732 0 00-4.758 3.568 16.203 16.203 0 00-2.755 5.021 17.929 17.929 0 00-.949 5.827c0 4.07 1.098 7.117 3.295 9.144 1.986 1.85 4.789 2.774 8.41 2.774a13.574 13.574 0 005.972-1.453 46.226 46.226 0 006.393-3.859l-.577-1.029-.822-.213z" fill="#9C9C9C"/>
  </g>
  <defs>
    <clipPath id="clip0">
      <path fill="#fff" d="M0 0h208v41H0z"/>
    </clipPath>
  </defs>
</svg>
