<svg width="152" height="39" fill="none" xmlns="http://www.w3.org/2000/svg">
  <path fill-rule="evenodd" clip-rule="evenodd" d="M23.024 16.85h2.717c2.808 0 4.325 3.292 2.496 5.425l-2.66 3.1a7.392 7.392 0 002.719 4.655 7.409 7.409 0 0010.021-.77 7.389 7.389 0 001.975-5.017 2.462 2.462 0 012.466-2.464 2.468 2.468 0 012.467 2.464 12.31 12.31 0 01-2.328 7.203 12.348 12.348 0 01-19.873.188 12.348 12.348 0 01-19.873-.188 12.31 12.31 0 01-2.329-7.203 2.462 2.462 0 012.467-2.464 2.468 2.468 0 012.467 2.464 7.387 7.387 0 001.966 5.029 7.404 7.404 0 0012.75-3.898l-2.662-3.1c-1.828-2.132-.312-5.423 2.5-5.423h2.714z" fill="#9C9C9C"/>
  <path d="M34.535 10.28a4.93 4.93 0 004.934-4.928A4.93 4.93 0 0034.535.424a4.93 4.93 0 00-4.933 4.928 4.93 4.93 0 004.933 4.928zM11.512 10.28a4.93 4.93 0 004.933-4.928A4.93 4.93 0 0011.512.424a4.93 4.93 0 00-4.934 4.928 4.93 4.93 0 004.934 4.928zM79.445 1.628c.76 0 1.384.217 1.872.651.488.434.732 1.004.732 1.71v24.335c0 .733-.23 1.316-.692 1.75-.46.434-1.071.651-1.83.651-.76 0-1.37-.217-1.832-.65-.461-.435-.692-1.018-.692-1.75v-1.018c-.597 1.112-1.465 1.98-2.605 2.604-1.112.624-2.387.936-3.825.936-1.71 0-3.242-.434-4.598-1.302-1.33-.868-2.374-2.089-3.134-3.663-.733-1.6-1.099-3.431-1.099-5.493 0-2.062.366-3.866 1.099-5.413.76-1.546 1.804-2.74 3.134-3.581 1.329-.841 2.862-1.262 4.598-1.262 1.438 0 2.713.299 3.826.896a6.21 6.21 0 012.563 2.523V3.907c0-.678.217-1.221.651-1.628.462-.434 1.072-.651 1.832-.651zM71.916 26.9c1.628 0 2.876-.556 3.744-1.669.895-1.112 1.343-2.7 1.343-4.761 0-2.062-.448-3.636-1.343-4.72-.868-1.113-2.102-1.67-3.703-1.67-1.628 0-2.89.543-3.785 1.629-.895 1.085-1.343 2.645-1.343 4.68 0 2.062.448 3.662 1.343 4.802.895 1.14 2.143 1.709 3.744 1.709zM96.357 30.847c-2.034 0-3.825-.42-5.371-1.261-1.52-.841-2.7-2.048-3.541-3.622-.841-1.574-1.262-3.405-1.262-5.494s.42-3.907 1.262-5.453c.841-1.574 2.021-2.781 3.54-3.622 1.547-.841 3.338-1.262 5.372-1.262 2.035 0 3.812.42 5.331 1.262a8.447 8.447 0 013.541 3.622c.841 1.546 1.262 3.364 1.262 5.453 0 2.09-.421 3.92-1.262 5.494a8.447 8.447 0 01-3.541 3.622c-1.519.84-3.296 1.261-5.33 1.261zm-.04-3.947c1.655 0 2.916-.543 3.784-1.628.869-1.085 1.303-2.686 1.303-4.802 0-2.089-.434-3.676-1.303-4.761-.868-1.113-2.116-1.669-3.744-1.669-1.627 0-2.89.556-3.784 1.669-.868 1.085-1.303 2.672-1.303 4.761 0 2.116.434 3.717 1.303 4.802.868 1.085 2.116 1.628 3.744 1.628zM127.538 10.215c.76 0 1.37.217 1.831.65.462.435.692 1.018.692 1.75V28.69c0 3.12-.868 5.48-2.604 7.082-1.737 1.6-4.3 2.4-7.692 2.4-2.957 0-5.426-.555-7.406-1.668-1.004-.597-1.506-1.316-1.506-2.157 0-.597.136-1.071.407-1.424.298-.353.678-.53 1.139-.53.245 0 .543.055.896.164.352.135.719.285 1.098.447a24.16 24.16 0 002.605.936c.787.217 1.682.326 2.686.326 3.554 0 5.331-1.736 5.331-5.21v-2.604c-.597 1.113-1.465 1.98-2.604 2.605-1.14.597-2.442.895-3.907.895-1.737 0-3.283-.407-4.64-1.22-1.329-.842-2.373-2.008-3.133-3.5-.76-1.493-1.14-3.215-1.14-5.169 0-1.953.367-3.676 1.099-5.168.76-1.52 1.818-2.686 3.174-3.5 1.357-.841 2.903-1.262 4.64-1.262 1.465 0 2.767.312 3.907.936a6.095 6.095 0 012.604 2.564v-1.058c0-.705.231-1.275.692-1.71.461-.433 1.072-.65 1.831-.65zm-7.691 15.79c1.628 0 2.889-.53 3.784-1.587.923-1.059 1.384-2.51 1.384-4.355 0-1.872-.461-3.337-1.384-4.395-.895-1.058-2.156-1.587-3.784-1.587-1.601 0-2.863.529-3.785 1.587-.922 1.058-1.384 2.523-1.384 4.395 0 1.845.462 3.296 1.384 4.355.922 1.058 2.184 1.587 3.785 1.587zM142.533 30.847c-2.957 0-5.344-.583-7.162-1.75-.868-.515-1.302-1.248-1.302-2.197 0-.543.149-.977.447-1.302.299-.353.665-.53 1.099-.53.461 0 1.099.218 1.913.652.868.407 1.655.719 2.36.936.733.217 1.655.325 2.767.325 1.14 0 2.022-.19 2.646-.57.651-.38.976-.908.976-1.587 0-.46-.135-.827-.407-1.098-.244-.272-.705-.516-1.383-.733-.652-.244-1.655-.515-3.012-.814-2.414-.488-4.151-1.18-5.209-2.075-1.031-.895-1.546-2.13-1.546-3.703 0-1.194.352-2.266 1.058-3.216.705-.976 1.668-1.722 2.889-2.238 1.248-.542 2.659-.814 4.232-.814 1.14 0 2.239.15 3.297.448a9.633 9.633 0 012.849 1.22c.868.543 1.302 1.262 1.302 2.158 0 .542-.149 1.004-.448 1.383-.298.353-.665.53-1.099.53-.298 0-.597-.055-.895-.163a25.859 25.859 0 01-1.058-.57c-.787-.407-1.465-.705-2.035-.895-.57-.217-1.275-.326-2.116-.326-1.004 0-1.804.204-2.401.61-.57.407-.855.964-.855 1.669 0 .678.299 1.194.896 1.546.597.353 1.75.706 3.459 1.059 1.818.38 3.242.813 4.273 1.302 1.031.488 1.763 1.099 2.197 1.831.462.733.692 1.669.692 2.808 0 1.845-.773 3.324-2.319 4.436-1.52 1.112-3.555 1.668-6.105 1.668z" fill="#9C9C9C"/>
</svg>
