<svg width="16" height="16" fill="none" xmlns="http://www.w3.org/2000/svg">
  <path d="M1.333 4c.366 0 .666-.3.666-.666v-.667C2 2.3 2.3 2 2.666 2h.667c.366 0 .666-.3.666-.666 0-.367-.3-.667-.666-.667h-.667c-1.107 0-2 .893-2 2v.667c0 .366.3.666.667.666zM3.333 14h-.667a.669.669 0 01-.667-.666v-.667c0-.367-.3-.666-.666-.666-.367 0-.667.3-.667.666v.667c0 1.107.893 2 2 2h.667c.366 0 .666-.3.666-.667 0-.367-.3-.666-.666-.666zM13.333.667h-.666c-.367 0-.667.3-.667.667 0 .366.3.666.667.666h.666c.367 0 .667.3.667.667v.667c0 .366.3.666.667.666.366 0 .666-.3.666-.666v-.667c0-1.107-.893-2-2-2zM14.667 12c-.367 0-.667.3-.667.667v.667c0 .367-.3.667-.667.667h-.666c-.367 0-.667.3-.667.666 0 .367.3.667.667.667h.666c1.107 0 2-.893 2-2v-.667c0-.367-.3-.666-.666-.666zM12.665 9.914V6.087c0-.48-.253-.92-.666-1.153l-3.334-1.92a1.317 1.317 0 00-1.333 0L3.999 4.926c-.414.24-.667.68-.667 1.16v3.827c0 .48.253.92.667 1.153l3.333 1.92a1.317 1.317 0 001.333 0L12 11.067a1.32 1.32 0 00.666-1.153zm-5.333 1.533L4.665 9.914V6.827L7.332 8.38v3.067zm.667-4.22l-2.64-1.54 2.64-1.52 2.64 1.52-2.64 1.54zm3.333 2.687l-2.667 1.533V8.38l2.667-1.553v3.087z" fill="#000"/>
</svg>
